%TF.GenerationSoftware,KiCad,Pcbnew,10.0.5-10.0.5~ubuntu24.04.1*%
%TF.CreationDate,2026-08-06T12:02:32+04:00*%
%TF.ProjectId,proj1,70726f6a-312e-46b6-9963-61645f706362,rev?*%
%TF.SameCoordinates,Original*%
%TF.FileFunction,Soldermask,Top*%
%TF.FilePolarity,Negative*%
%FSLAX46Y46*%
G04 Gerber Fmt 4.6, Leading zero omitted, Abs format (unit mm)*
G04 Created by KiCad (PCBNEW 10.0.5-10.0.5~ubuntu24.04.1) date 2026-08-06 12:02:32*
%MOMM*%
%LPD*%
G01*
G04 APERTURE LIST*
G04 Aperture macros list*
%AMRoundRect*
0 Rectangle with rounded corners*
0 $1 Rounding radius*
0 $2 $3 $4 $5 $6 $7 $8 $9 X,Y pos of 4 corners*
0 Add a 4 corners polygon primitive as box body*
4,1,4,$2,$3,$4,$5,$6,$7,$8,$9,$2,$3,0*
0 Add four circle primitives for the rounded corners*
1,1,$1+$1,$2,$3*
1,1,$1+$1,$4,$5*
1,1,$1+$1,$6,$7*
1,1,$1+$1,$8,$9*
0 Add four rect primitives between the rounded corners*
20,1,$1+$1,$2,$3,$4,$5,0*
20,1,$1+$1,$4,$5,$6,$7,0*
20,1,$1+$1,$6,$7,$8,$9,0*
20,1,$1+$1,$8,$9,$2,$3,0*%
G04 Aperture macros list end*
%ADD10C,0.150000*%
%ADD11C,1.600000*%
%ADD12R,2.000000X2.000000*%
%ADD13C,2.000000*%
%ADD14RoundRect,1.000000X-0.000010X0.000010X-0.000010X-0.000010X0.000010X-0.000010X0.000010X0.000010X0*%
%ADD15C,4.404000*%
%ADD16R,1.700000X1.700000*%
%ADD17C,1.700000*%
%ADD18R,3.000000X4.720000*%
%ADD19R,3.000000X4.240000*%
%ADD20O,1.700000X1.700000*%
%ADD21RoundRect,1.000000X0.000010X-0.000010X0.000010X0.000010X-0.000010X0.000010X-0.000010X-0.000010X0*%
%ADD22RoundRect,1.000000X0.000010X0.000010X-0.000010X0.000010X-0.000010X-0.000010X0.000010X-0.000010X0*%
%ADD23R,4.000000X4.000000*%
%ADD24C,1.982000*%
%ADD25C,4.704000*%
%ADD26C,1.712000*%
%ADD27RoundRect,0.102000X-0.754000X-0.754000X0.754000X-0.754000X0.754000X0.754000X-0.754000X0.754000X0*%
%ADD28C,1.200000*%
%ADD29RoundRect,0.300000X-0.700000X-0.700000X0.700000X-0.700000X0.700000X0.700000X-0.700000X0.700000X0*%
%ADD30RoundRect,0.102000X-0.889000X-0.889000X0.889000X-0.889000X0.889000X0.889000X-0.889000X0.889000X0*%
%ADD31RoundRect,1.000000X-0.000010X-0.000010X0.000010X-0.000010X0.000010X0.000010X-0.000010X0.000010X0*%
%ADD32C,3.404000*%
%ADD33RoundRect,0.102000X-0.889000X0.889000X-0.889000X-0.889000X0.889000X-0.889000X0.889000X0.889000X0*%
%ADD34RoundRect,0.102000X0.754000X0.754000X-0.754000X0.754000X-0.754000X-0.754000X0.754000X-0.754000X0*%
G04 APERTURE END LIST*
D10*
X100194819Y-93978458D02*
X100194819Y-93359411D01*
X100194819Y-93359411D02*
X100575771Y-93692744D01*
X100575771Y-93692744D02*
X100575771Y-93549887D01*
X100575771Y-93549887D02*
X100623390Y-93454649D01*
X100623390Y-93454649D02*
X100671009Y-93407030D01*
X100671009Y-93407030D02*
X100766247Y-93359411D01*
X100766247Y-93359411D02*
X101004342Y-93359411D01*
X101004342Y-93359411D02*
X101099580Y-93407030D01*
X101099580Y-93407030D02*
X101147200Y-93454649D01*
X101147200Y-93454649D02*
X101194819Y-93549887D01*
X101194819Y-93549887D02*
X101194819Y-93835601D01*
X101194819Y-93835601D02*
X101147200Y-93930839D01*
X101147200Y-93930839D02*
X101099580Y-93978458D01*
X100528152Y-93026077D02*
X101194819Y-92787982D01*
X101194819Y-92787982D02*
X100528152Y-92549887D01*
X100194819Y-92264172D02*
X100194819Y-91645125D01*
X100194819Y-91645125D02*
X100575771Y-91978458D01*
X100575771Y-91978458D02*
X100575771Y-91835601D01*
X100575771Y-91835601D02*
X100623390Y-91740363D01*
X100623390Y-91740363D02*
X100671009Y-91692744D01*
X100671009Y-91692744D02*
X100766247Y-91645125D01*
X100766247Y-91645125D02*
X101004342Y-91645125D01*
X101004342Y-91645125D02*
X101099580Y-91692744D01*
X101099580Y-91692744D02*
X101147200Y-91740363D01*
X101147200Y-91740363D02*
X101194819Y-91835601D01*
X101194819Y-91835601D02*
X101194819Y-92121315D01*
X101194819Y-92121315D02*
X101147200Y-92216553D01*
X101147200Y-92216553D02*
X101099580Y-92264172D01*
X100528152Y-90454648D02*
X101385295Y-90454648D01*
X101385295Y-90454648D02*
X101480533Y-90502267D01*
X101480533Y-90502267D02*
X101528152Y-90597505D01*
X101528152Y-90597505D02*
X101528152Y-90645124D01*
X100194819Y-90454648D02*
X100242438Y-90502267D01*
X100242438Y-90502267D02*
X100290057Y-90454648D01*
X100290057Y-90454648D02*
X100242438Y-90407029D01*
X100242438Y-90407029D02*
X100194819Y-90454648D01*
X100194819Y-90454648D02*
X100290057Y-90454648D01*
X101194819Y-89978458D02*
X100528152Y-89978458D01*
X100623390Y-89978458D02*
X100575771Y-89930839D01*
X100575771Y-89930839D02*
X100528152Y-89835601D01*
X100528152Y-89835601D02*
X100528152Y-89692744D01*
X100528152Y-89692744D02*
X100575771Y-89597506D01*
X100575771Y-89597506D02*
X100671009Y-89549887D01*
X100671009Y-89549887D02*
X101194819Y-89549887D01*
X100671009Y-89549887D02*
X100575771Y-89502268D01*
X100575771Y-89502268D02*
X100528152Y-89407030D01*
X100528152Y-89407030D02*
X100528152Y-89264173D01*
X100528152Y-89264173D02*
X100575771Y-89168934D01*
X100575771Y-89168934D02*
X100671009Y-89121315D01*
X100671009Y-89121315D02*
X101194819Y-89121315D01*
X100528152Y-88645125D02*
X101528152Y-88645125D01*
X100575771Y-88645125D02*
X100528152Y-88549887D01*
X100528152Y-88549887D02*
X100528152Y-88359411D01*
X100528152Y-88359411D02*
X100575771Y-88264173D01*
X100575771Y-88264173D02*
X100623390Y-88216554D01*
X100623390Y-88216554D02*
X100718628Y-88168935D01*
X100718628Y-88168935D02*
X101004342Y-88168935D01*
X101004342Y-88168935D02*
X101099580Y-88216554D01*
X101099580Y-88216554D02*
X101147200Y-88264173D01*
X101147200Y-88264173D02*
X101194819Y-88359411D01*
X101194819Y-88359411D02*
X101194819Y-88549887D01*
X101194819Y-88549887D02*
X101147200Y-88645125D01*
X101194819Y-87740363D02*
X100528152Y-87740363D01*
X100718628Y-87740363D02*
X100623390Y-87692744D01*
X100623390Y-87692744D02*
X100575771Y-87645125D01*
X100575771Y-87645125D02*
X100528152Y-87549887D01*
X100528152Y-87549887D02*
X100528152Y-87454649D01*
X62033458Y-44600180D02*
X61414411Y-44600180D01*
X61414411Y-44600180D02*
X61747744Y-44219228D01*
X61747744Y-44219228D02*
X61604887Y-44219228D01*
X61604887Y-44219228D02*
X61509649Y-44171609D01*
X61509649Y-44171609D02*
X61462030Y-44123990D01*
X61462030Y-44123990D02*
X61414411Y-44028752D01*
X61414411Y-44028752D02*
X61414411Y-43790657D01*
X61414411Y-43790657D02*
X61462030Y-43695419D01*
X61462030Y-43695419D02*
X61509649Y-43647800D01*
X61509649Y-43647800D02*
X61604887Y-43600180D01*
X61604887Y-43600180D02*
X61890601Y-43600180D01*
X61890601Y-43600180D02*
X61985839Y-43647800D01*
X61985839Y-43647800D02*
X62033458Y-43695419D01*
X61081077Y-44266847D02*
X60842982Y-43600180D01*
X60842982Y-43600180D02*
X60604887Y-44266847D01*
X60319172Y-44600180D02*
X59700125Y-44600180D01*
X59700125Y-44600180D02*
X60033458Y-44219228D01*
X60033458Y-44219228D02*
X59890601Y-44219228D01*
X59890601Y-44219228D02*
X59795363Y-44171609D01*
X59795363Y-44171609D02*
X59747744Y-44123990D01*
X59747744Y-44123990D02*
X59700125Y-44028752D01*
X59700125Y-44028752D02*
X59700125Y-43790657D01*
X59700125Y-43790657D02*
X59747744Y-43695419D01*
X59747744Y-43695419D02*
X59795363Y-43647800D01*
X59795363Y-43647800D02*
X59890601Y-43600180D01*
X59890601Y-43600180D02*
X60176315Y-43600180D01*
X60176315Y-43600180D02*
X60271553Y-43647800D01*
X60271553Y-43647800D02*
X60319172Y-43695419D01*
X58557267Y-43885895D02*
X58081077Y-43885895D01*
X58652505Y-43600180D02*
X58319172Y-44600180D01*
X58319172Y-44600180D02*
X57985839Y-43600180D01*
X57176315Y-43600180D02*
X57652505Y-43600180D01*
X57652505Y-43600180D02*
X57652505Y-44600180D01*
X56366791Y-43600180D02*
X56842981Y-43600180D01*
X56842981Y-43600180D02*
X56842981Y-44600180D01*
X49655180Y-93671541D02*
X49655180Y-94290588D01*
X49655180Y-94290588D02*
X49274228Y-93957255D01*
X49274228Y-93957255D02*
X49274228Y-94100112D01*
X49274228Y-94100112D02*
X49226609Y-94195350D01*
X49226609Y-94195350D02*
X49178990Y-94242969D01*
X49178990Y-94242969D02*
X49083752Y-94290588D01*
X49083752Y-94290588D02*
X48845657Y-94290588D01*
X48845657Y-94290588D02*
X48750419Y-94242969D01*
X48750419Y-94242969D02*
X48702800Y-94195350D01*
X48702800Y-94195350D02*
X48655180Y-94100112D01*
X48655180Y-94100112D02*
X48655180Y-93814398D01*
X48655180Y-93814398D02*
X48702800Y-93719160D01*
X48702800Y-93719160D02*
X48750419Y-93671541D01*
X49321847Y-94623922D02*
X48655180Y-94862017D01*
X48655180Y-94862017D02*
X49321847Y-95100112D01*
X49655180Y-95385827D02*
X49655180Y-96004874D01*
X49655180Y-96004874D02*
X49274228Y-95671541D01*
X49274228Y-95671541D02*
X49274228Y-95814398D01*
X49274228Y-95814398D02*
X49226609Y-95909636D01*
X49226609Y-95909636D02*
X49178990Y-95957255D01*
X49178990Y-95957255D02*
X49083752Y-96004874D01*
X49083752Y-96004874D02*
X48845657Y-96004874D01*
X48845657Y-96004874D02*
X48750419Y-95957255D01*
X48750419Y-95957255D02*
X48702800Y-95909636D01*
X48702800Y-95909636D02*
X48655180Y-95814398D01*
X48655180Y-95814398D02*
X48655180Y-95528684D01*
X48655180Y-95528684D02*
X48702800Y-95433446D01*
X48702800Y-95433446D02*
X48750419Y-95385827D01*
X49321847Y-97195351D02*
X48464704Y-97195351D01*
X48464704Y-97195351D02*
X48369466Y-97147732D01*
X48369466Y-97147732D02*
X48321847Y-97052494D01*
X48321847Y-97052494D02*
X48321847Y-97004875D01*
X49655180Y-97195351D02*
X49607561Y-97147732D01*
X49607561Y-97147732D02*
X49559942Y-97195351D01*
X49559942Y-97195351D02*
X49607561Y-97242970D01*
X49607561Y-97242970D02*
X49655180Y-97195351D01*
X49655180Y-97195351D02*
X49559942Y-97195351D01*
X48655180Y-97671541D02*
X49321847Y-97671541D01*
X49226609Y-97671541D02*
X49274228Y-97719160D01*
X49274228Y-97719160D02*
X49321847Y-97814398D01*
X49321847Y-97814398D02*
X49321847Y-97957255D01*
X49321847Y-97957255D02*
X49274228Y-98052493D01*
X49274228Y-98052493D02*
X49178990Y-98100112D01*
X49178990Y-98100112D02*
X48655180Y-98100112D01*
X49178990Y-98100112D02*
X49274228Y-98147731D01*
X49274228Y-98147731D02*
X49321847Y-98242969D01*
X49321847Y-98242969D02*
X49321847Y-98385826D01*
X49321847Y-98385826D02*
X49274228Y-98481065D01*
X49274228Y-98481065D02*
X49178990Y-98528684D01*
X49178990Y-98528684D02*
X48655180Y-98528684D01*
X49321847Y-99004874D02*
X48321847Y-99004874D01*
X49274228Y-99004874D02*
X49321847Y-99100112D01*
X49321847Y-99100112D02*
X49321847Y-99290588D01*
X49321847Y-99290588D02*
X49274228Y-99385826D01*
X49274228Y-99385826D02*
X49226609Y-99433445D01*
X49226609Y-99433445D02*
X49131371Y-99481064D01*
X49131371Y-99481064D02*
X48845657Y-99481064D01*
X48845657Y-99481064D02*
X48750419Y-99433445D01*
X48750419Y-99433445D02*
X48702800Y-99385826D01*
X48702800Y-99385826D02*
X48655180Y-99290588D01*
X48655180Y-99290588D02*
X48655180Y-99100112D01*
X48655180Y-99100112D02*
X48702800Y-99004874D01*
X48655180Y-99909636D02*
X49321847Y-99909636D01*
X49131371Y-99909636D02*
X49226609Y-99957255D01*
X49226609Y-99957255D02*
X49274228Y-100004874D01*
X49274228Y-100004874D02*
X49321847Y-100100112D01*
X49321847Y-100100112D02*
X49321847Y-100195350D01*
X136016541Y-49964819D02*
X136635588Y-49964819D01*
X136635588Y-49964819D02*
X136302255Y-50345771D01*
X136302255Y-50345771D02*
X136445112Y-50345771D01*
X136445112Y-50345771D02*
X136540350Y-50393390D01*
X136540350Y-50393390D02*
X136587969Y-50441009D01*
X136587969Y-50441009D02*
X136635588Y-50536247D01*
X136635588Y-50536247D02*
X136635588Y-50774342D01*
X136635588Y-50774342D02*
X136587969Y-50869580D01*
X136587969Y-50869580D02*
X136540350Y-50917200D01*
X136540350Y-50917200D02*
X136445112Y-50964819D01*
X136445112Y-50964819D02*
X136159398Y-50964819D01*
X136159398Y-50964819D02*
X136064160Y-50917200D01*
X136064160Y-50917200D02*
X136016541Y-50869580D01*
X136968922Y-50298152D02*
X137207017Y-50964819D01*
X137207017Y-50964819D02*
X137445112Y-50298152D01*
X137730827Y-49964819D02*
X138349874Y-49964819D01*
X138349874Y-49964819D02*
X138016541Y-50345771D01*
X138016541Y-50345771D02*
X138159398Y-50345771D01*
X138159398Y-50345771D02*
X138254636Y-50393390D01*
X138254636Y-50393390D02*
X138302255Y-50441009D01*
X138302255Y-50441009D02*
X138349874Y-50536247D01*
X138349874Y-50536247D02*
X138349874Y-50774342D01*
X138349874Y-50774342D02*
X138302255Y-50869580D01*
X138302255Y-50869580D02*
X138254636Y-50917200D01*
X138254636Y-50917200D02*
X138159398Y-50964819D01*
X138159398Y-50964819D02*
X137873684Y-50964819D01*
X137873684Y-50964819D02*
X137778446Y-50917200D01*
X137778446Y-50917200D02*
X137730827Y-50869580D01*
X139540351Y-50298152D02*
X139540351Y-51155295D01*
X139540351Y-51155295D02*
X139492732Y-51250533D01*
X139492732Y-51250533D02*
X139397494Y-51298152D01*
X139397494Y-51298152D02*
X139349875Y-51298152D01*
X139540351Y-49964819D02*
X139492732Y-50012438D01*
X139492732Y-50012438D02*
X139540351Y-50060057D01*
X139540351Y-50060057D02*
X139587970Y-50012438D01*
X139587970Y-50012438D02*
X139540351Y-49964819D01*
X139540351Y-49964819D02*
X139540351Y-50060057D01*
X140016541Y-50964819D02*
X140016541Y-50298152D01*
X140016541Y-50393390D02*
X140064160Y-50345771D01*
X140064160Y-50345771D02*
X140159398Y-50298152D01*
X140159398Y-50298152D02*
X140302255Y-50298152D01*
X140302255Y-50298152D02*
X140397493Y-50345771D01*
X140397493Y-50345771D02*
X140445112Y-50441009D01*
X140445112Y-50441009D02*
X140445112Y-50964819D01*
X140445112Y-50441009D02*
X140492731Y-50345771D01*
X140492731Y-50345771D02*
X140587969Y-50298152D01*
X140587969Y-50298152D02*
X140730826Y-50298152D01*
X140730826Y-50298152D02*
X140826065Y-50345771D01*
X140826065Y-50345771D02*
X140873684Y-50441009D01*
X140873684Y-50441009D02*
X140873684Y-50964819D01*
X141349874Y-50298152D02*
X141349874Y-51298152D01*
X141349874Y-50345771D02*
X141445112Y-50298152D01*
X141445112Y-50298152D02*
X141635588Y-50298152D01*
X141635588Y-50298152D02*
X141730826Y-50345771D01*
X141730826Y-50345771D02*
X141778445Y-50393390D01*
X141778445Y-50393390D02*
X141826064Y-50488628D01*
X141826064Y-50488628D02*
X141826064Y-50774342D01*
X141826064Y-50774342D02*
X141778445Y-50869580D01*
X141778445Y-50869580D02*
X141730826Y-50917200D01*
X141730826Y-50917200D02*
X141635588Y-50964819D01*
X141635588Y-50964819D02*
X141445112Y-50964819D01*
X141445112Y-50964819D02*
X141349874Y-50917200D01*
X142254636Y-50964819D02*
X142254636Y-50298152D01*
X142254636Y-50488628D02*
X142302255Y-50393390D01*
X142302255Y-50393390D02*
X142349874Y-50345771D01*
X142349874Y-50345771D02*
X142445112Y-50298152D01*
X142445112Y-50298152D02*
X142540350Y-50298152D01*
X55112969Y-120114819D02*
X54636779Y-120114819D01*
X54636779Y-120114819D02*
X54589160Y-120591009D01*
X54589160Y-120591009D02*
X54636779Y-120543390D01*
X54636779Y-120543390D02*
X54732017Y-120495771D01*
X54732017Y-120495771D02*
X54970112Y-120495771D01*
X54970112Y-120495771D02*
X55065350Y-120543390D01*
X55065350Y-120543390D02*
X55112969Y-120591009D01*
X55112969Y-120591009D02*
X55160588Y-120686247D01*
X55160588Y-120686247D02*
X55160588Y-120924342D01*
X55160588Y-120924342D02*
X55112969Y-121019580D01*
X55112969Y-121019580D02*
X55065350Y-121067200D01*
X55065350Y-121067200D02*
X54970112Y-121114819D01*
X54970112Y-121114819D02*
X54732017Y-121114819D01*
X54732017Y-121114819D02*
X54636779Y-121067200D01*
X54636779Y-121067200D02*
X54589160Y-121019580D01*
X55446303Y-120114819D02*
X55779636Y-121114819D01*
X55779636Y-121114819D02*
X56112969Y-120114819D01*
X56446303Y-120733866D02*
X57208208Y-120733866D01*
X56827255Y-121114819D02*
X56827255Y-120352914D01*
X59208208Y-120448152D02*
X59208208Y-121305295D01*
X59208208Y-121305295D02*
X59160589Y-121400533D01*
X59160589Y-121400533D02*
X59065351Y-121448152D01*
X59065351Y-121448152D02*
X59017732Y-121448152D01*
X59208208Y-120114819D02*
X59160589Y-120162438D01*
X59160589Y-120162438D02*
X59208208Y-120210057D01*
X59208208Y-120210057D02*
X59255827Y-120162438D01*
X59255827Y-120162438D02*
X59208208Y-120114819D01*
X59208208Y-120114819D02*
X59208208Y-120210057D01*
X59684398Y-121114819D02*
X59684398Y-120448152D01*
X59684398Y-120543390D02*
X59732017Y-120495771D01*
X59732017Y-120495771D02*
X59827255Y-120448152D01*
X59827255Y-120448152D02*
X59970112Y-120448152D01*
X59970112Y-120448152D02*
X60065350Y-120495771D01*
X60065350Y-120495771D02*
X60112969Y-120591009D01*
X60112969Y-120591009D02*
X60112969Y-121114819D01*
X60112969Y-120591009D02*
X60160588Y-120495771D01*
X60160588Y-120495771D02*
X60255826Y-120448152D01*
X60255826Y-120448152D02*
X60398683Y-120448152D01*
X60398683Y-120448152D02*
X60493922Y-120495771D01*
X60493922Y-120495771D02*
X60541541Y-120591009D01*
X60541541Y-120591009D02*
X60541541Y-121114819D01*
X61017731Y-120448152D02*
X61017731Y-121448152D01*
X61017731Y-120495771D02*
X61112969Y-120448152D01*
X61112969Y-120448152D02*
X61303445Y-120448152D01*
X61303445Y-120448152D02*
X61398683Y-120495771D01*
X61398683Y-120495771D02*
X61446302Y-120543390D01*
X61446302Y-120543390D02*
X61493921Y-120638628D01*
X61493921Y-120638628D02*
X61493921Y-120924342D01*
X61493921Y-120924342D02*
X61446302Y-121019580D01*
X61446302Y-121019580D02*
X61398683Y-121067200D01*
X61398683Y-121067200D02*
X61303445Y-121114819D01*
X61303445Y-121114819D02*
X61112969Y-121114819D01*
X61112969Y-121114819D02*
X61017731Y-121067200D01*
X61922493Y-121114819D02*
X61922493Y-120448152D01*
X61922493Y-120638628D02*
X61970112Y-120543390D01*
X61970112Y-120543390D02*
X62017731Y-120495771D01*
X62017731Y-120495771D02*
X62112969Y-120448152D01*
X62112969Y-120448152D02*
X62208207Y-120448152D01*
D11*
%TO.C,R14*%
X172037500Y-100745000D03*
X184737500Y-100745000D03*
%TD*%
D12*
%TO.C,J3*%
X51725000Y-48770000D03*
D13*
X51725000Y-51310000D03*
D14*
X51725000Y-53850000D03*
X51725000Y-56390000D03*
%TD*%
D11*
%TO.C,R8*%
X180287500Y-47745000D03*
X180287500Y-60445000D03*
%TD*%
D15*
%TO.C,*%
X219262500Y-54615000D03*
%TD*%
D16*
%TO.C,J9*%
X183777500Y-75040000D03*
D17*
X183777500Y-77580000D03*
X183777500Y-80120000D03*
X183777500Y-82660000D03*
X183777500Y-85200000D03*
X183777500Y-87740000D03*
X183777500Y-90280000D03*
X183777500Y-92820000D03*
%TD*%
D16*
%TO.C,J10*%
X211287500Y-75125000D03*
D17*
X211287500Y-77665000D03*
X211287500Y-80205000D03*
X211287500Y-82745000D03*
X211287500Y-85285000D03*
X211287500Y-87825000D03*
X211287500Y-90365000D03*
X211287500Y-92905000D03*
%TD*%
D11*
%TO.C,R25*%
X196037500Y-80445000D03*
X196037500Y-93145000D03*
%TD*%
D18*
%TO.C,jmpr4*%
X98075000Y-105785000D03*
D19*
X98075000Y-97185000D03*
%TD*%
D11*
%TO.C,R19*%
X220787500Y-101495000D03*
X208087500Y-101495000D03*
%TD*%
D16*
%TO.C,J11-in1*%
X183172500Y-110245000D03*
D17*
X183172500Y-107705000D03*
X183172500Y-105165000D03*
%TD*%
D16*
%TO.C,J8*%
X122175000Y-48270000D03*
D20*
X124715000Y-48270000D03*
X127255000Y-48270000D03*
X129795000Y-48270000D03*
%TD*%
D11*
%TO.C,R20*%
X207537500Y-77245000D03*
X194837500Y-77245000D03*
%TD*%
%TO.C,R13*%
X187787500Y-112695000D03*
X187787500Y-99995000D03*
%TD*%
%TO.C,R12*%
X176037500Y-60345000D03*
X176037500Y-47645000D03*
%TD*%
%TO.C,R7*%
X188787500Y-37995000D03*
X188787500Y-50695000D03*
%TD*%
D16*
%TO.C,J5*%
X145265000Y-39460000D03*
D17*
X142725000Y-39460000D03*
X140185000Y-39460000D03*
X137645000Y-39460000D03*
%TD*%
D11*
%TO.C,R5*%
X204887500Y-38745000D03*
X192187500Y-38745000D03*
%TD*%
D21*
%TO.C,jmpr6*%
X96825000Y-91720000D03*
X96825000Y-89180000D03*
%TD*%
D12*
%TO.C,U3*%
X77775000Y-48220000D03*
D22*
X77775000Y-40220000D03*
D12*
X63775000Y-48220000D03*
D22*
X63775000Y-40220000D03*
%TD*%
D11*
%TO.C,R6*%
X192437500Y-43245000D03*
X205137500Y-43245000D03*
%TD*%
D22*
%TO.C,jmpr2*%
X60775000Y-47970000D03*
D12*
X58235000Y-47970000D03*
%TD*%
D11*
%TO.C,R18*%
X191787500Y-80395000D03*
X191787500Y-93095000D03*
%TD*%
D16*
%TO.C,J14*%
X102475000Y-74120000D03*
D20*
X102475000Y-76660000D03*
X102475000Y-79200000D03*
X102475000Y-81740000D03*
%TD*%
D23*
%TO.C,U5*%
X104245000Y-112370000D03*
X116325000Y-112470000D03*
X104155000Y-87870000D03*
X116325000Y-87960000D03*
%TD*%
D24*
%TO.C,*%
X144225000Y-85520000D03*
%TD*%
D16*
%TO.C,J6*%
X119725000Y-67095000D03*
D17*
X117185000Y-67095000D03*
X114645000Y-67095000D03*
X112105000Y-67095000D03*
%TD*%
D15*
%TO.C,*%
X200212500Y-110495000D03*
%TD*%
D11*
%TO.C,R21*%
X207287500Y-68245000D03*
X194587500Y-68245000D03*
%TD*%
D12*
%TO.C,J1*%
X51775000Y-90970000D03*
D21*
X51775000Y-88430000D03*
X51775000Y-85890000D03*
X51775000Y-83350000D03*
%TD*%
D11*
%TO.C,R23*%
X194787500Y-72745000D03*
X207487500Y-72745000D03*
%TD*%
D14*
%TO.C,jmpr1*%
X53025000Y-95930000D03*
X53025000Y-98470000D03*
%TD*%
D11*
%TO.C,R11*%
X184787500Y-60495000D03*
X184787500Y-47795000D03*
%TD*%
%TO.C,R10*%
X189037500Y-53495000D03*
X189037500Y-66195000D03*
%TD*%
%TO.C,R9*%
X171537500Y-47745000D03*
X171537500Y-60445000D03*
%TD*%
D16*
%TO.C,J13*%
X96575000Y-82845000D03*
D20*
X96575000Y-85385000D03*
%TD*%
D11*
%TO.C,R22*%
X208037500Y-97870000D03*
X220737500Y-97870000D03*
%TD*%
D16*
%TO.C,J9-in1*%
X208537500Y-38665000D03*
D17*
X208537500Y-41205000D03*
X208537500Y-43745000D03*
%TD*%
D24*
%TO.C,U4*%
X141202000Y-54060000D03*
X141202000Y-112353000D03*
X138662000Y-54060000D03*
X138662000Y-112353000D03*
D15*
X144250000Y-55330000D03*
X144250000Y-111210000D03*
D25*
X125200000Y-55330000D03*
D15*
X125200000Y-111210000D03*
D24*
X136122000Y-54060000D03*
X136122000Y-112353000D03*
X133582000Y-54060000D03*
X133582000Y-112353000D03*
X131042000Y-54060000D03*
X131042000Y-112353000D03*
%TD*%
D11*
%TO.C,R15*%
X187537500Y-93100000D03*
X187537500Y-80400000D03*
%TD*%
D26*
%TO.C,U6*%
X99695000Y-44140000D03*
X99695000Y-46680000D03*
X99695000Y-49220000D03*
X114935000Y-44140000D03*
X99695000Y-51760000D03*
X99695000Y-54300000D03*
D27*
X114935000Y-39060000D03*
D26*
X99695000Y-56840000D03*
X99695000Y-59380000D03*
X114935000Y-59380000D03*
X114935000Y-56840000D03*
X114935000Y-54300000D03*
X114935000Y-51760000D03*
X114935000Y-49220000D03*
X114935000Y-46720000D03*
D28*
X112915000Y-57870000D03*
X112915000Y-55820000D03*
X112915000Y-53870000D03*
X112915000Y-51870000D03*
X112915000Y-49870000D03*
X112915000Y-47620000D03*
X112915000Y-45570000D03*
X112915000Y-43570000D03*
X110415000Y-49870000D03*
X110415000Y-47620000D03*
X110415000Y-45520000D03*
X110415000Y-43570000D03*
X101515000Y-57870000D03*
X101515000Y-55870000D03*
X101515000Y-53820000D03*
X101565000Y-51820000D03*
X101565000Y-49870000D03*
X101665000Y-47620000D03*
X101665000Y-45670000D03*
X101725000Y-43620000D03*
D29*
X109615000Y-39020000D03*
X104515000Y-38970000D03*
D26*
X114935000Y-41600000D03*
X99695000Y-41600000D03*
X99695000Y-39060000D03*
%TD*%
D15*
%TO.C,*%
X219262500Y-110495000D03*
%TD*%
D11*
%TO.C,R3*%
X205287500Y-47745000D03*
X192587500Y-47745000D03*
%TD*%
%TO.C,R1*%
X208787500Y-48995000D03*
X221487500Y-48995000D03*
%TD*%
%TO.C,R4*%
X192687500Y-60245000D03*
X205387500Y-60245000D03*
%TD*%
%TO.C,R17*%
X172037500Y-97345000D03*
X172037500Y-84645000D03*
%TD*%
D30*
%TO.C,*%
X144225000Y-82520000D03*
%TD*%
D12*
%TO.C,jmpr5*%
X138275000Y-46595000D03*
D31*
X140815000Y-46595000D03*
%TD*%
D11*
%TO.C,R16*%
X187887500Y-96995000D03*
X175187500Y-96995000D03*
%TD*%
%TO.C,R26*%
X190787500Y-96745000D03*
X203487500Y-96745000D03*
%TD*%
D25*
%TO.C,*%
X200212500Y-54615000D03*
%TD*%
D24*
%TO.C,U1*%
X74227000Y-53450000D03*
X74227000Y-111743000D03*
X77250000Y-83660000D03*
X71687000Y-53450000D03*
X71687000Y-111743000D03*
D32*
X77275000Y-54720000D03*
X77275000Y-110600000D03*
X58225000Y-54720000D03*
X58225000Y-110600000D03*
D24*
X69147000Y-53450000D03*
X69147000Y-111743000D03*
X66607000Y-53450000D03*
X66607000Y-111743000D03*
X61527000Y-53450000D03*
X61527000Y-111743000D03*
D30*
X77250000Y-81120000D03*
D33*
X64067000Y-53450000D03*
D24*
X64067000Y-111743000D03*
%TD*%
D11*
%TO.C,R24*%
X194437500Y-63995000D03*
X207137500Y-63995000D03*
%TD*%
D16*
%TO.C,J15*%
X113625000Y-82520000D03*
D20*
X116165000Y-82520000D03*
X118705000Y-82520000D03*
X121245000Y-82520000D03*
%TD*%
D16*
%TO.C,J7*%
X128975000Y-39625000D03*
D17*
X126435000Y-39625000D03*
X123895000Y-39625000D03*
X121355000Y-39625000D03*
%TD*%
D11*
%TO.C,R2*%
X210787500Y-56745000D03*
X210787500Y-69445000D03*
%TD*%
D31*
%TO.C,jmpr3*%
X56800000Y-116745000D03*
X59340000Y-116745000D03*
%TD*%
D12*
%TO.C,J2*%
X51325000Y-67670000D03*
D21*
X51325000Y-65130000D03*
X51325000Y-62590000D03*
X51325000Y-60050000D03*
%TD*%
D12*
%TO.C,USBC_PD3*%
X113225000Y-95520000D03*
X113225000Y-92980000D03*
D21*
X103225000Y-95520000D03*
X103225000Y-92980000D03*
%TD*%
D16*
%TO.C,J10-in1*%
X183787500Y-38745000D03*
D17*
X183787500Y-41285000D03*
X183787500Y-43825000D03*
%TD*%
D26*
%TO.C,U2*%
X53015000Y-108980000D03*
X53015000Y-111520000D03*
X53015000Y-114060000D03*
X37775000Y-108980000D03*
X53015000Y-116600000D03*
X53015000Y-119140000D03*
D34*
X37775000Y-103900000D03*
D26*
X53015000Y-121680000D03*
X53015000Y-124220000D03*
X37775000Y-124220000D03*
X37775000Y-121680000D03*
X37775000Y-119140000D03*
X37775000Y-116600000D03*
X37775000Y-114060000D03*
X37775000Y-111560000D03*
X37775000Y-106440000D03*
X53015000Y-106440000D03*
X53015000Y-103900000D03*
%TD*%
D16*
%TO.C,J12*%
X136225000Y-75720000D03*
D17*
X136225000Y-78260000D03*
X136225000Y-80800000D03*
X136225000Y-83340000D03*
X136225000Y-85880000D03*
X136225000Y-88420000D03*
D16*
X136225000Y-90960000D03*
D17*
X136225000Y-93500000D03*
%TD*%
D16*
%TO.C,J11*%
X108675000Y-75620000D03*
D17*
X108675000Y-78160000D03*
X108675000Y-80700000D03*
X108675000Y-83240000D03*
X108675000Y-85780000D03*
X108675000Y-88320000D03*
D16*
X108675000Y-90860000D03*
D17*
X108675000Y-93400000D03*
%TD*%
D16*
%TO.C,J12-in1*%
X208537500Y-110455000D03*
D17*
X208537500Y-107915000D03*
X208537500Y-105375000D03*
%TD*%
D12*
%TO.C,USBC_PD2*%
X57425000Y-102820000D03*
D14*
X57425000Y-105360000D03*
X67425000Y-102820000D03*
X67425000Y-105360000D03*
%TD*%
D16*
%TO.C,J4*%
X38275000Y-39015000D03*
D17*
X40815000Y-39015000D03*
D16*
X43355000Y-39015000D03*
D17*
X45895000Y-39015000D03*
%TD*%
M02*
