M48
; DRILL file KiCad 10.0.5-10.0.5~ubuntu24.04.1 date 2026-08-06T12:02:36
; FORMAT={-:-/ absolute / metric / decimal}
; #@! TF.CreationDate,2026-08-06T12:02:36+04:00
; #@! TF.GenerationSoftware,Kicad,Pcbnew,10.0.5-10.0.5~ubuntu24.04.1
; #@! TF.FileFunction,Plated,1,2,PTH
FMAT,2
METRIC
; #@! TA.AperFunction,Plated,PTH,ComponentDrill
T1C0.500
; #@! TA.AperFunction,Plated,PTH,ComponentDrill
T2C0.800
; #@! TA.AperFunction,Plated,PTH,ComponentDrill
T3C1.000
; #@! TA.AperFunction,Plated,PTH,ComponentDrill
T4C1.016
; #@! TA.AperFunction,Plated,PTH,ComponentDrill
T5C2.000
; #@! TA.AperFunction,Plated,PTH,ComponentDrill
T6C2.500
; #@! TA.AperFunction,Plated,PTH,ComponentDrill
T7C4.000
%
G90
G05
T1
X101.515Y-53.82
X101.515Y-55.87
X101.515Y-57.87
X101.565Y-49.87
X101.565Y-51.82
X101.665Y-45.67
X101.665Y-47.62
X101.725Y-43.62
X110.415Y-43.57
X110.415Y-45.52
X110.415Y-47.62
X110.415Y-49.87
X112.915Y-43.57
X112.915Y-45.57
X112.915Y-47.62
X112.915Y-49.87
X112.915Y-51.87
X112.915Y-53.87
X112.915Y-55.82
X112.915Y-57.87
T2
X171.537Y-47.745
X171.537Y-60.445
X172.037Y-84.645
X172.037Y-97.345
X172.037Y-100.745
X175.188Y-96.995
X176.037Y-47.645
X176.037Y-60.345
X180.287Y-47.745
X180.287Y-60.445
X184.737Y-100.745
X184.787Y-47.795
X184.787Y-60.495
X187.537Y-80.4
X187.537Y-93.1
X187.787Y-99.995
X187.787Y-112.695
X187.887Y-96.995
X188.787Y-37.995
X188.787Y-50.695
X189.037Y-53.495
X189.037Y-66.195
X190.787Y-96.745
X191.787Y-80.395
X191.787Y-93.095
X192.188Y-38.745
X192.438Y-43.245
X192.587Y-47.745
X192.688Y-60.245
X194.438Y-63.995
X194.587Y-68.245
X194.787Y-72.745
X194.837Y-77.245
X196.037Y-80.445
X196.037Y-93.145
X203.487Y-96.745
X204.887Y-38.745
X205.137Y-43.245
X205.287Y-47.745
X205.387Y-60.245
X207.137Y-63.995
X207.287Y-68.245
X207.487Y-72.745
X207.537Y-77.245
X208.037Y-97.87
X208.087Y-101.495
X208.787Y-48.995
X210.787Y-56.745
X210.787Y-69.445
X220.737Y-97.87
X220.787Y-101.495
X221.487Y-48.995
T3
X37.775Y-103.9
X37.775Y-106.44
X37.775Y-108.98
X37.775Y-111.56
X37.775Y-114.06
X37.775Y-116.6
X37.775Y-119.14
X37.775Y-121.68
X37.775Y-124.22
X38.275Y-39.015
X40.815Y-39.015
X43.355Y-39.015
X45.895Y-39.015
X51.325Y-60.05
X51.325Y-62.59
X51.325Y-65.13
X51.325Y-67.67
X51.725Y-48.77
X51.725Y-51.31
X51.725Y-53.85
X51.725Y-56.39
X51.775Y-83.35
X51.775Y-85.89
X51.775Y-88.43
X51.775Y-90.97
X53.015Y-103.9
X53.015Y-106.44
X53.015Y-108.98
X53.015Y-111.52
X53.015Y-114.06
X53.015Y-116.6
X53.015Y-119.14
X53.015Y-121.68
X53.015Y-124.22
X53.025Y-95.93
X53.025Y-98.47
X56.8Y-116.745
X57.425Y-102.82
X57.425Y-105.36
X58.235Y-47.97
X59.34Y-116.745
X60.775Y-47.97
X63.775Y-40.22
X63.775Y-48.22
X67.425Y-102.82
X67.425Y-105.36
X77.25Y-81.12
X77.25Y-83.66
X77.775Y-40.22
X77.775Y-48.22
X96.575Y-82.845
X96.575Y-85.385
X96.825Y-89.18
X96.825Y-91.72
X99.695Y-39.06
X99.695Y-41.6
X99.695Y-44.14
X99.695Y-46.68
X99.695Y-49.22
X99.695Y-51.76
X99.695Y-54.3
X99.695Y-56.84
X99.695Y-59.38
X102.475Y-74.12
X102.475Y-76.66
X102.475Y-79.2
X102.475Y-81.74
X103.225Y-92.98
X103.225Y-95.52
X108.675Y-75.62
X108.675Y-78.16
X108.675Y-80.7
X108.675Y-83.24
X108.675Y-85.78
X108.675Y-88.32
X108.675Y-90.86
X108.675Y-93.4
X112.105Y-67.095
X113.225Y-92.98
X113.225Y-95.52
X113.625Y-82.52
X114.645Y-67.095
X114.935Y-39.06
X114.935Y-41.6
X114.935Y-44.14
X114.935Y-46.72
X114.935Y-49.22
X114.935Y-51.76
X114.935Y-54.3
X114.935Y-56.84
X114.935Y-59.38
X116.165Y-82.52
X117.185Y-67.095
X118.705Y-82.52
X119.725Y-67.095
X121.245Y-82.52
X121.355Y-39.625
X122.175Y-48.27
X123.895Y-39.625
X124.715Y-48.27
X126.435Y-39.625
X127.255Y-48.27
X128.975Y-39.625
X129.795Y-48.27
X136.225Y-75.72
X136.225Y-78.26
X136.225Y-80.8
X136.225Y-83.34
X136.225Y-85.88
X136.225Y-88.42
X136.225Y-90.96
X136.225Y-93.5
X137.645Y-39.46
X138.275Y-46.595
X140.185Y-39.46
X140.815Y-46.595
X142.725Y-39.46
X144.225Y-82.52
X144.225Y-85.52
X145.265Y-39.46
X183.172Y-105.165
X183.172Y-107.705
X183.172Y-110.245
X183.778Y-75.04
X183.778Y-77.58
X183.778Y-80.12
X183.778Y-82.66
X183.778Y-85.2
X183.778Y-87.74
X183.778Y-90.28
X183.778Y-92.82
X183.787Y-38.745
X183.787Y-41.285
X183.787Y-43.825
X208.537Y-38.665
X208.537Y-41.205
X208.537Y-43.745
X208.537Y-105.375
X208.537Y-107.915
X208.537Y-110.455
X211.287Y-75.125
X211.287Y-77.665
X211.287Y-80.205
X211.287Y-82.745
X211.287Y-85.285
X211.287Y-87.825
X211.287Y-90.365
X211.287Y-92.905
T4
X61.527Y-53.45
X64.067Y-53.45
X64.067Y-111.743
X66.607Y-53.45
X66.607Y-111.743
X69.147Y-53.45
X69.147Y-111.743
X71.687Y-53.45
X71.687Y-111.743
X74.227Y-53.45
X74.227Y-111.743
X131.042Y-54.06
X131.042Y-112.353
X133.582Y-54.06
X133.582Y-112.353
X136.122Y-54.06
X136.122Y-112.353
X138.662Y-54.06
X138.662Y-112.353
X141.202Y-54.06
X141.202Y-112.353
T5
X98.075Y-96.565
X98.075Y-106.645
X104.155Y-87.87
X104.245Y-112.37
X116.325Y-87.96
X116.325Y-112.47
T6
X58.225Y-54.72
X58.225Y-110.6
X77.275Y-54.72
X77.275Y-110.6
T7
X125.2Y-55.33
X125.2Y-111.21
X144.25Y-55.33
X144.25Y-111.21
X200.212Y-54.615
X200.212Y-110.495
X219.262Y-54.615
X219.262Y-110.495
M30
